<?xml version="1.0" encoding="UTF-8"?>
<svg id="Layer_2" data-name="Layer 2" xmlns="http://www.w3.org/2000/svg" viewBox="0 0 374.63 306.79">
  <defs>
    <style>
      .cls-1 {
        fill: #fff;
      }
    </style>
  </defs>
  <g id="Layer_1-2" data-name="Layer 1">
    <path class="cls-1" d="m169.74,300.48c-7.59-41.83-10.99-84.39-10.24-126.89.21-12.1.77-24.19,1.65-36.26l-8.54,3.54c12.78,16.33,22.25,36.66,30.03,55.75,8.32,20.39,15.71,41.21,25.66,60.89,5.6,11.07,12.08,21.59,19.73,31.36,1.34,1.71,4.31,1.8,6.06.78,2.03-1.19,2.69-3.44,2.3-5.65-6.51-36.48-14.83-72.59-22.5-108.84-7.6-35.89-14.62-71.98-18.36-108.5-2.1-20.5-3.16-41.1-2.8-61.7l-9.32,2.52c8.78,15.97,15.23,33.02,21.14,50.22s12.07,35.85,18.49,53.64c13,36.02,27.24,71.59,42.64,106.64,8.64,19.67,17.66,39.17,27.05,58.5,1.07,2.21,4.13,2.98,6.24,2.05,2.35-1.03,3.43-3.4,2.89-5.9-4.48-20.77-8.97-41.55-13.45-62.32-4.35-20.16-9.38-40.37-11.4-60.93-1.1-11.23-1.37-22.69.19-33.89l-8.36,2.21c15.51,14.06,25.61,32.74,36.57,50.32,11.47,18.39,23.4,36.5,36.8,53.56,7.42,9.45,15.32,18.52,23.81,27.04,1.56,1.57,4.15,1.9,6.06.78,1.76-1.03,3.1-3.62,2.3-5.65-13.51-33.91-27.04-67.93-36.6-103.21-2.37-8.73-4.48-17.53-6.29-26.39-.89-4.38-1.71-8.78-2.44-13.18-.65-3.93-1.19-7.97-4.12-10.96-2.19-2.23-5.67-3.33-8.39-1.55-.56.36-1.09.79-1.63,1.18-5.93,4.36-11.83,8.76-17.78,13.08-10.62,7.71-21.35,15.27-32.18,22.68-14.02,9.58-28.22,18.91-42.64,27.89-15.8,9.85-31.86,19.3-48.25,28.13-8.34,4.49-16.77,8.82-25.3,12.93-4.08,1.96-8.18,3.88-12.31,5.73-2.09.94-4.18,1.86-6.28,2.76-.52.22-1.04.45-1.56.67-.21.09-.42.18-.63.27-1.05.45.79-.33.1-.04-1.09.45-2.18.91-3.27,1.36-15.26,6.27-30.99,11.72-47.19,15-1.79.36-3.6.7-5.4,1-.91.15-1.82.3-2.73.43-.41.06-.81.12-1.22.18-.73.11-.2.32.39-.05-.14.08-.64.08-.8.1-3.46.44-6.94.74-10.43.87-3.2.12-6.4.09-9.6-.12-1.32-.09-3.47.09-4.68-.46.86.39,1.14.16.53.07-.19-.03-.38-.05-.57-.08-.38-.06-.75-.12-1.13-.18-.74-.13-1.49-.26-2.23-.41-2.83-.58-5.63-1.35-8.34-2.36-.28-.1-1.65-.85-1.89-.74.24-.11,1.26.55.51.21-.16-.07-.32-.14-.49-.21-.32-.14-.64-.29-.96-.44-1.27-.6-2.51-1.26-3.71-1.98s-2.37-1.48-3.5-2.3c-.28-.2-.55-.45-.84-.63.71.42.79.62.11.07-.57-.47-1.13-.94-1.68-1.44-1.06-.95-2.07-1.96-3.02-3.01-.44-.48-.87-.97-1.28-1.47-.23-.28-.46-.57-.69-.85-.77-.93.73,1-.09-.12-1.74-2.39-3.29-4.89-4.62-7.53-1.22-2.41-4.61-3.1-6.84-1.79-2.45,1.43-3.01,4.42-1.79,6.84,5.78,11.46,15.32,20.03,27.24,24.7,11.98,4.7,25.49,5.02,38.14,3.6,15.89-1.78,31.36-6.06,46.39-11.44,17.28-6.18,34.07-13.76,50.45-22.01,16.81-8.46,33.24-17.68,49.39-27.35,15.15-9.08,30.06-18.57,44.76-28.36,12.17-8.1,24.2-16.42,36.09-24.91,7.71-5.5,15.35-11.08,22.96-16.72,1.73-1.28,3.44-2.58,5.19-3.83.18-.13.41-.24.56-.4.04-.04.11-.06.15-.1-.31.34-1.57.48-2.21.52-1.17.07-1.02.1-1.86-.3.59.28.25.39.04.03.06.11.61,1.42.29.51.11.31.2.62.29.93.52,1.87.72,3.84,1.04,5.76.76,4.52,1.6,9.03,2.53,13.52,7.35,35.67,19.71,70.05,32.92,103.91,3.22,8.24,6.49,16.46,9.76,24.68l8.36-4.86c-15.16-15.21-28.34-32.18-40.43-49.88-12-17.56-22.57-36.03-34.29-53.76-6.5-9.83-13.69-19.34-22.45-27.28-2.46-2.23-7.8-1.79-8.36,2.21-2.97,21.41-.49,42.79,3.56,63.89,4.04,21.06,8.89,41.99,13.42,62.95,2.56,11.87,5.12,23.74,7.69,35.61,3.05-1.28,6.09-2.57,9.14-3.85-16.6-34.19-32.06-68.93-46.29-104.18-14.2-35.18-26.87-70.86-39.03-106.79-6.71-19.83-13.89-39.65-24-58.04-2.44-4.44-9.23-2.31-9.32,2.52-.65,37.29,3.43,74.47,9.59,111.2,6.12,36.52,14.32,72.65,22.09,108.85,4.4,20.49,8.66,41.01,12.34,61.64l8.36-4.86c-12.78-16.33-22.25-36.67-30.03-55.75-8.31-20.39-15.71-41.21-25.66-60.89-5.6-11.07-12.08-21.59-19.73-31.36-1.2-1.53-3.84-1.75-5.46-1.03-1.91.84-2.92,2.51-3.07,4.57-3.15,43.08-2.04,86.45,3.36,129.31,1.54,12.22,3.39,24.39,5.59,36.51.48,2.66,3.71,4.16,6.15,3.49,2.8-.77,3.98-3.48,3.49-6.15h0Z"/>
  </g>
</svg>